<?xml version="1.0" standalone="no"?>
<!DOCTYPE svg PUBLIC "-//W3C//DTD SVG 20010904//EN"
 "http://www.w3.org/TR/2001/REC-SVG-20010904/DTD/svg10.dtd">
<svg version="1.0" xmlns="http://www.w3.org/2000/svg"
 width="300.000000pt" height="300.000000pt" viewBox="0 0 300.000000 300.000000"
 preserveAspectRatio="xMidYMid meet">
<metadata>
Created by potrace 1.11, written by Peter Selinger 2001-2013
</metadata>
<g transform="translate(0.000000,300.000000) scale(0.100000,-0.100000)"
fill="#000000" stroke="none">
<path d="M933 2857 c-67 -7 -124 -15 -128 -18 -3 -4 20 -10 52 -14 95 -11 341
-62 469 -95 515 -137 951 -343 1338 -632 43 -33 80 -58 82 -56 5 6 -114 197
-172 273 -103 137 -280 287 -427 362 -168 84 -375 147 -572 173 -122 16 -503
20 -642 7z"/>
<path d="M1560 2439 c-218 -24 -501 -138 -781 -315 -149 -95 -248 -171 -378
-292 -107 -99 -261 -281 -261 -308 0 -8 37 17 88 60 211 179 579 380 912 498
119 42 362 107 495 132 235 45 311 64 412 102 54 20 102 40 107 44 10 10 -90
42 -199 63 -104 20 -287 28 -395 16z"/>
<path d="M1331 2090 c-351 -227 -587 -520 -701 -870 -82 -248 -109 -472 -92
-751 12 -197 62 -531 62 -418 1 156 37 447 80 639 43 189 167 511 286 739 77
147 239 395 353 539 106 133 136 182 113 182 -4 0 -50 -27 -101 -60z"/>
<path d="M2736 1793 c-31 -112 -114 -291 -176 -384 -45 -67 -122 -160 -199
-243 -129 -136 -384 -276 -576 -317 -100 -20 -258 -16 -345 11 -74 22 -253
106 -360 170 -30 18 -73 39 -95 46 l-40 13 39 -32 c22 -18 73 -62 114 -100
169 -152 276 -215 422 -247 96 -21 230 -25 310 -9 196 40 255 63 415 157 65
38 219 182 264 247 49 71 139 243 160 307 42 131 80 286 91 376 7 51 10 95 8
98 -3 2 -17 -40 -32 -93z"/>
</g>
</svg>
